<?xml version="1.0" encoding="utf-8"?>
<!-- Generator: Adobe Illustrator 14.0.0, SVG Export Plug-In . SVG Version: 6.00 Build 43363)  -->
<!DOCTYPE svg PUBLIC "-//W3C//DTD SVG 1.1//EN" "http://www.w3.org/Graphics/SVG/1.1/DTD/svg11.dtd">
<svg version="1.1" id="Layer_1" xmlns="http://www.w3.org/2000/svg" xmlns:xlink="http://www.w3.org/1999/xlink" x="0px" y="0px"
	 width="128px" height="128px" viewBox="-44.5 -36.363 128 128" enable-background="new -44.5 -36.363 128 128"
	 xml:space="preserve">
<path fill="#FFFFFF" d="M17.646-2.196c0,14.566-11.809,26.376-26.375,26.376s-26.375-11.81-26.375-26.376
	s11.809-26.375,26.375-26.375S17.646-16.762,17.646-2.196z M-8.729-16.946c-8.146,0-14.75,6.604-14.75,14.75
	c0,8.146,6.604,14.75,14.75,14.75s14.75-6.604,14.75-14.75C6.021-10.341-0.583-16.946-8.729-16.946z"/>
<path fill="none" stroke="#000000" stroke-width="4.4604" stroke-linecap="round" d="M11.308,2.092
	c0.294-1.384,0.449-2.818,0.449-4.29c0-11.312-9.172-20.484-20.486-20.484c-11.312,0-20.484,9.172-20.484,20.484
	c0,9.107,5.942,16.826,14.162,19.49"/>
<path fill="#FFFFFF" d="M28.146,84.526L28.146,84.526c-1.062,0-2.109-0.305-3.297-0.958l-13.866-8.007l3.623-6.28L8.33,65.656
	l3.574-6.192l-6.031-3.479l3.628-6.28L3.105,46.01l-2.062-7.698c-7.522-2.683-13.336-8.882-15.416-16.599
	C-17.841,8.688-9.989-4.784,3.128-8.331c2.11-0.561,4.263-0.843,6.413-0.843c11.128,0,20.88,7.454,23.716,18.125
	c2.088,7.728,0.156,16.021-5.043,22.116l10.76,40.157l-5.89,10.095C31.536,83.97,29.545,84.526,28.146,84.526L28.146,84.526z"/>
<path d="M30.002,79.521l5.141-8.81L24.257,30.087c5.189-5.113,7.572-12.739,5.552-20.219C26.845-1.288,15.303-7.872,4.06-4.886
	C-7.197-1.843-13.897,9.63-10.927,20.784c2.011,7.459,7.87,12.859,14.908,14.703l2.188,8.172l8.205,4.74l-3.627,6.278l6.029,3.479
	l-3.574,6.193l6.276,3.625l-3.623,6.279l10.714,6.188C28.169,81.322,29.071,81.115,30.002,79.521z M1.753,7.905
	C0.982,4.918,2.765,1.87,5.736,1.104c2.998-0.832,6.062,0.915,6.849,3.898c0.799,2.927-0.983,5.973-3.982,6.8
	C5.634,12.575,2.566,10.827,1.753,7.905z"/>
<path fill="none" stroke="#000000" stroke-width="4.4604" d="M11.307,1.092"/>
<path fill="#FFFFFF" d="M65.69,60.071H49.715l-0.003-7.251l-7.25-0.001v-7.148H35.5l0.002-7.252l-7.384-0.001l-5.636-5.635
	c-1.474,0.27-2.971,0.406-4.472,0.406c-6.5,0-12.601-2.513-17.179-7.075c-9.516-9.546-9.451-25.14,0.136-34.769
	c4.696-4.676,10.901-7.245,17.484-7.245c6.533,0,12.659,2.539,17.249,7.147c5.671,5.647,8.145,13.793,6.69,21.674l29.398,29.396
	l-0.054,11.688c-0.019,3.775-2.208,5.985-6.008,6.062L65.69,60.071L65.69,60.071z"/>
<path d="M68.166,53.991l0.047-10.2l-29.74-29.739c1.937-7.023,0.189-14.818-5.301-20.285c-8.146-8.18-21.433-8.111-29.676,0.097
	c-8.228,8.263-8.294,21.549-0.146,29.724c5.473,5.454,13.247,7.201,20.263,5.281l5.982,5.981l9.476,0.001l-0.002,7.252h6.962v7.149
	l7.248,0.001l0.003,7.25h12.372C67.479,56.466,68.157,55.835,68.166,53.991z M7.894,6.093c-2.161-2.201-2.141-5.73,0.05-7.88
	c2.18-2.22,5.707-2.239,7.878-0.048c2.157,2.135,2.137,5.663-0.047,7.879C13.589,8.198,10.06,8.218,7.894,6.093z"/>
<path fill="none" stroke="#000000" stroke-width="4.4604" stroke-linecap="round" d="M11.307,2.092
	c0.295-1.384,0.45-2.819,0.45-4.29c0-11.312-9.172-20.484-20.486-20.484c-11.312,0-20.484,9.172-20.484,20.484
	c0,3.936,1.11,7.613,3.034,10.734"/>
</svg>
