<?xml version="1.0" encoding="utf-8"?>
<!-- Generator: Adobe Illustrator 14.0.0, SVG Export Plug-In . SVG Version: 6.00 Build 43363)  -->
<!DOCTYPE svg PUBLIC "-//W3C//DTD SVG 1.1//EN" "http://www.w3.org/Graphics/SVG/1.1/DTD/svg11.dtd">
<svg version="1.1" id="Layer_1" xmlns="http://www.w3.org/2000/svg" xmlns:xlink="http://www.w3.org/1999/xlink" x="0px" y="0px"
	 width="19px" height="19px" viewBox="64.5 72.637 19 19" enable-background="new 64.5 72.637 19 19" xml:space="preserve">
<path fill="none" stroke="#000000" stroke-width="4.4604" d="M11.307,1.092"/>
<g>
	<path fill="#FFFFFF" d="M80.908,90.106h-3.352l-0.001-1.521h-1.521v-1.499h-1.461l0.001-1.522h-1.549l-1.183-1.182
		c-0.31,0.057-0.623,0.085-0.938,0.085c-1.363,0-2.643-0.527-3.604-1.484c-1.997-2.003-1.982-5.273,0.029-7.294
		c0.984-0.98,2.287-1.52,3.667-1.52c1.371,0,2.656,0.532,3.619,1.5c1.189,1.185,1.708,2.893,1.403,4.547l6.167,6.166l-0.011,2.452
		c-0.005,0.793-0.464,1.257-1.261,1.272H80.908L80.908,90.106z"/>
	<path d="M81.428,88.831l0.01-2.141l-6.239-6.238c0.406-1.474,0.04-3.108-1.112-4.256c-1.708-1.716-4.496-1.701-6.225,0.021
		c-1.727,1.732-1.74,4.52-0.031,6.234c1.148,1.145,2.779,1.511,4.251,1.108l1.255,1.255h1.987v1.521h1.461v1.501h1.521v1.521H80.9
		C81.283,89.35,81.426,89.218,81.428,88.831z M68.783,78.782c-0.454-0.461-0.449-1.202,0.011-1.652
		c0.458-0.466,1.197-0.471,1.652-0.011c0.452,0.448,0.448,1.188-0.01,1.652C69.979,79.223,69.237,79.228,68.783,78.782z"/>
</g>
</svg>
