<?xml version="1.0" encoding="utf-8"?>
<!-- Generator: Adobe Illustrator 14.0.0, SVG Export Plug-In . SVG Version: 6.00 Build 43363)  -->
<!DOCTYPE svg PUBLIC "-//W3C//DTD SVG 1.1//EN" "http://www.w3.org/Graphics/SVG/1.1/DTD/svg11.dtd">
<svg version="1.1" id="Ebene_1" xmlns="http://www.w3.org/2000/svg" xmlns:xlink="http://www.w3.org/1999/xlink" x="0px" y="0px"
	 width="424.917px" height="21.973px" viewBox="0 0 424.917 21.973" enable-background="new 0 0 424.917 21.973"
	 xml:space="preserve">
<g>
	<path d="M14.108,11.698c-0.106-0.105-0.366-0.061-0.52,0.092c-0.131,0.131-0.376,0.377-0.614,0.615
		c-0.236,0.235-0.481,0.481-0.613,0.613c-0.154,0.153-0.199,0.415-0.094,0.52c0.484,0.483,1.405,1.098,2.285,1.977
		c2.225,2.227,5.005,5.312,5.812,6.12c0.107,0.106,0.367,0.059,0.52-0.094c0.114-0.115,0.357-0.355,0.614-0.613
		c0.257-0.259,0.498-0.498,0.614-0.614c0.153-0.152,0.2-0.415,0.093-0.52c-0.807-0.808-3.894-3.585-6.12-5.811
		C15.205,13.104,14.59,12.182,14.108,11.698z"/>
	<path d="M12.297,2.493c-2.728-2.729-7.148-2.729-9.877,0c-2.729,2.728-2.729,7.149,0,9.878c2.729,2.729,7.149,2.729,9.877,0
		C15.027,9.642,15.027,5.219,12.297,2.493z M10.997,11.07c-2.008,2.009-5.265,2.009-7.276,0c-2.01-2.009-2.009-5.267,0-7.276
		c2.009-2.01,5.268-2.01,7.276,0C13.006,5.803,13.006,9.059,10.997,11.07z"/>
</g>
<polygon fill="#333333" points="423.75,5.21 421.598,5.21 421.598,13.453 409.569,13.453 412.956,10.067 410.02,10.067 
	405.567,14.513 410.02,18.966 412.961,18.973 409.592,15.605 423.75,15.605 "/>
</svg>
